<?xml version="1.0" encoding="iso-8859-1"?>
<!-- Generator: Adobe Illustrator 19.0.0, SVG Export Plug-In . SVG Version: 6.00 Build 0)  -->
<svg version="1.1" id="Capa_1" xmlns="http://www.w3.org/2000/svg" xmlns:xlink="http://www.w3.org/1999/xlink" x="0px" y="0px"
	 viewBox="0 0 512 512" style="enable-background:new 0 0 512 512;fill:#5c5470" xml:space="preserve">
<g>
	<g>
		<path d="M166,151h-45v210h45c41.353,0,75-33.647,75-75v-60C241,184.647,207.353,151,166,151z"/>
	</g>
</g>
<g>
	<g>
		<path d="M467,0H45C20.186,0,0,20.186,0,45v422c0,24.814,20.186,45,45,45h422c24.814,0,45-20.186,45-45V45
			C512,20.186,491.814,0,467,0z M271,286c0,57.891-47.109,105-105,105h-60c-8.291,0-15-6.709-15-15V136c0-8.291,6.709-15,15-15h60
			c57.891,0,105,47.109,105,105V286z M421,376c0,8.291-6.709,15-15,15c-8.291,0-15-6.709-15-15V271c0-16.538-13.462-30-30-30
			c-16.538,0-30,13.462-30,30v105c0,8.291-6.709,15-15,15c-8.291,0-15-6.709-15-15V271v-45c0-8.291,6.709-15,15-15
			c6.161,0,11.428,3.724,13.737,9.031C338.868,214.409,349.508,211,361,211c33.091,0,60,26.909,60,60V376z"/>
	</g>
</g>
<g>
</g>
<g>
</g>
<g>
</g>
<g>
</g>
<g>
</g>
<g>
</g>
<g>
</g>
<g>
</g>
<g>
</g>
<g>
</g>
<g>
</g>
<g>
</g>
<g>
</g>
<g>
</g>
<g>
</g>
</svg>
