<?xml version="1.0" encoding="iso-8859-1"?>
<!-- Generator: Adobe Illustrator 19.0.0, SVG Export Plug-In . SVG Version: 6.00 Build 0)  -->
<svg version="1.1" id="Capa_1" xmlns="http://www.w3.org/2000/svg" xmlns:xlink="http://www.w3.org/1999/xlink" x="0px" y="0px"
	 viewBox="0 0 512 512" style="enable-background:new 0 0 512 512;fill:#8b27b0" xml:space="preserve">
<g>
	<g>
		<path d="M376,241c-33.091,0-60,26.909-60,60s26.909,60,60,60c10.789,0,20.848-3.464,30-8.846V249.846
			C396.848,244.465,386.789,241,376,241z"/>
	</g>
</g>
<g>
	<g>
		<path d="M467,0H45C20.186,0,0,20.186,0,45v422c0,24.814,20.186,45,45,45h422c24.814,0,45-20.186,45-45V45
			C512,20.186,491.814,0,467,0z M263.954,388.715c-6.996,4.389-16.282,2.272-20.669-4.761L181,284.297l-62.285,99.657
			c-4.389,7.037-13.676,9.146-20.669,4.761c-7.017-4.38-9.155-13.638-4.761-20.669L163.314,256L93.285,143.954
			c-4.395-7.031-2.256-16.289,4.761-20.669c7.046-4.409,16.289-2.256,20.669,4.761L181,227.703l62.285-99.657
			c4.38-7.017,13.623-9.17,20.669-4.761c7.017,4.38,9.155,13.638,4.761,20.669L198.686,256l70.029,112.046
			C273.11,375.077,270.971,384.335,263.954,388.715z M436,376c0,8.291-6.709,15-15,15c-5.061,0-9.313-2.662-12.028-6.497
			C398.549,388.625,387.486,391,376,391c-49.629,0-90-40.371-90-90c0-49.629,40.371-90,90-90c10.384,0,20.457,1.849,30,5.229V136
			c0-8.291,6.709-15,15-15c8.291,0,15,6.709,15,15V376z"/>
	</g>
</g>
<g>
</g>
<g>
</g>
<g>
</g>
<g>
</g>
<g>
</g>
<g>
</g>
<g>
</g>
<g>
</g>
<g>
</g>
<g>
</g>
<g>
</g>
<g>
</g>
<g>
</g>
<g>
</g>
<g>
</g>
</svg>
